#!OML:ASF E:\Mandelcareful walks\Project 1\Capture day 1\Session 1\Subject1.ASF
:FULLY-SPECIFIED
:DEGREES
819
root 2.20354 16.9099 -0.0459937 -134.691 -85.7841 144.725
lowerback -13.3764 0.0573746 -3.2188
upperback -2.60808 0.406181 0.131543
thorax 4.72308 0.10729 2.02259
lowerneck -32.3723 0.614231 -1.63334
upperneck 26.7203 2.01754 -1.09518
head 14.6016 0.467056 0.235578
rclavicle 3.17434e-015 1.19271e-014
rhumerus -24.9667 -60.1815 -1.41277
rradius 23.3515
rwrist -10.5173
rhand -4.67907 -31.644
rfingers 7.12502
rthumb 21.1017 -60.5158
lclavicle 3.17434e-015 1.19271e-014
lhumerus -21.4056 50.1211 8.16824
lradius 21.2881
lwrist 5.40313
lhand -24.1624 -8.02515
lfingers 7.12502
lthumb 2.32055 21.942
rfemur -11.8255 -0.140908 14.6987
rtibia 21.29
rfoot -19.6656 -11.9842
rtoes 16.5603
lfemur -12.9761 -6.77491 -20.5409
ltibia 27.9161
lfoot -25.785 16.3907
ltoes 10.3588
820
root 2.1971 16.9093 -0.0453537 -134.756 -85.7585 144.787
lowerback -13.4577 0.067337 -3.20973
upperback -2.60188 0.421515 0.114466
thorax 4.77354 0.113862 2.00283
lowerneck -32.3467 0.596858 -1.62351
upperneck 26.741 1.96936 -1.04449
head 14.6051 0.455571 0.244669
rclavicle -5.96354e-016 -1.98785e-015
rhumerus -25.2257 -60.7409 -1.10684
rradius 23.2551
rwrist -9.79632
rhand -4.66517 -31.3619
rfingers 7.12502
rthumb 21.1151 -60.2321
lclavicle -5.96354e-016 -1.98785e-015
lhumerus -21.1661 49.4596 8.50475
lradius 21.4437
lwrist 6.38327
lhand -24.7126 -7.89105
lfingers 7.12502
lthumb 1.78911 22.0812
rfemur -11.8688 -0.252171 14.6751
rtibia 21.4152
rfoot -19.7064 -11.8346
rtoes 16.5589
lfemur -12.9099 -6.80899 -20.5667
ltibia 27.8373
lfoot -25.8082 16.4526
ltoes 10.3132
821
root 2.1913 16.9092 -0.0439576 -134.155 -85.7214 144.195
lowerback -13.563 0.059038 -3.23848
upperback -2.58306 0.419482 0.0966945
thorax 4.85119 0.110843 2.001
lowerneck -32.335 0.589726 -1.60493
upperneck 26.7948 1.95816 -1.07016
head 14.6272 0.44742 0.228489
rclavicle 4.42917e-015 6.36111e-015
rhumerus -25.3733 -61.137 -0.962217
rradius 23.1986
rwrist -9.28634
rhand -4.73749 -31.1524
rfingers 7.12502
rthumb 21.0456 -60.0304
lclavicle 4.42917e-015 6.36111e-015
lhumerus -21.2826 50.0263 8.32792
lradius 21.3743
lwrist 5.4852
lhand -24.4832 -8.06242
lfingers 7.12502
lthumb 2.0107 21.9078
rfemur -11.933 -0.571201 14.6055
rtibia 21.5509
rfoot -19.6683 -11.5578
rtoes 16.4684
lfemur -12.8655 -6.85771 -20.6393
ltibia 27.7562
lfoot -25.8275 16.4859
ltoes 10.3192
822
root 2.19161 16.906 -0.0436821 -132.109 -85.5325 142.09
lowerback -13.5596 0.0230581 -3.48613
upperback -2.52772 0.412294 0.0529628
thorax 4.90626 0.103019 2.09404
lowerneck -32.2787 0.607131 -1.68077
upperneck 26.7267 1.99851 -1.01011
head 14.5842 0.467491 0.274213
rclavicle 1.22998e-015 -3.18055e-015
rhumerus -24.7742 -59.6088 -1.83
rradius 23.4475
rwrist -10.8278
rhand -4.83566 -31.3745
rfingers 7.12502
rthumb 20.9513 -60.263
lclavicle 1.22998e-015 -3.18055e-015
lhumerus -21.276 50.0577 8.41172
lradius 21.4174
lwrist 5.71344
lhand -24.6112 -7.91682
lfingers 7.12502
lthumb 1.8871 22.0546
rfemur -11.9199 -0.715305 14.3311
rtibia 21.6384
rfoot -19.659 -11.4093
rtoes 16.5154
lfemur -12.7367 -6.65459 -20.9486
ltibia 27.7062
lfoot -25.5986 16.3658
ltoes 10.7542
823
root 2.19391 16.9026 -0.0447042 -131.478 -85.4618 141.411
lowerback -13.5439 -0.00363912 -3.59497
upperback -2.47389 0.395115 0.0531717
thorax 4.95459 0.0922398 2.15299
lowerneck -32.2301 0.635641 -1.69793
upperneck 26.6435 2.04729 -1.01441
head 14.5377 0.487642 0.285345
rclavicle 9.33977e-015 1.15295e-014
rhumerus -24.8335 -60.2871 -1.65483
rradius 23.2761
rwrist -10.259
rhand -4.61702 -31.3404
rfingers 7.12502
rthumb 21.1613 -60.2055
lclavicle 9.33977e-015 1.15295e-014
lhumerus -21.0834 49.1202 8.8062
lradius 21.6469
lwrist 7.17337
lhand -25.0037 -7.60545
lfingers 7.12502
lthumb 1.50796 22.369
rfemur -11.8998 -0.728339 14.2505
rtibia 21.7364
rfoot -19.706 -11.3936
rtoes 16.4402
lfemur -12.6347 -6.4272 -21.0694
ltibia 27.6624
lfoot -25.3577 16.213
ltoes 11.153
824
root 2.19532 16.9015 -0.0449626 -131.882 -85.5317 141.816
lowerback -13.5256 0.00132768 -3.52428
upperback -2.47268 0.390548 0.0661946
thorax 4.94666 0.0912938 2.1258
lowerneck -32.2653 0.610049 -1.70601
upperneck 26.7068 2.00792 -0.99001
head 14.5721 0.472423 0.288625
rclavicle 5.15598e-015 3.97569e-016
rhumerus -25.3353 -61.6808 -0.928667
rradius 22.9484
rwrist -8.88069
rhand -4.37058 -31.1036
rfingers 7.12502
rthumb 21.3981 -59.942
lclavicle 5.15598e-015 3.97569e-016
lhumerus -20.8815 48.4885 9.1274
lradius 21.7857
lwrist 8.03259
lhand -25.2887 -7.63944
lfingers 7.12502
lthumb 1.23273 22.3367
rfemur -11.905 -0.648407 14.3457
rtibia 21.8193
rfoot -19.8042 -11.4925
rtoes 16.2544
lfemur -12.6373 -6.40054 -20.9837
ltibia 27.6378
lfoot -25.3326 16.1816
ltoes 11.1416
825
root 2.1979 16.896 -0.0446465 -131.867 -85.5575 141.798
lowerback -13.4941 0.00936767 -3.50087
upperback -2.47022 0.397481 0.0581791
thorax 4.93176 0.0955274 2.1051
lowerneck -32.3146 0.584276 -1.75498
upperneck 26.7642 1.96959 -0.907434
head 14.6053 0.462691 0.323074
rclavicle 6.58474e-015 4.57205e-015
rhumerus -24.6273 -58.5462 -2.33368
rradius 23.7412
rwrist -11.9667
rhand -4.13801 -31.3992
rfingers 7.12502
rthumb 21.6214 -60.2121
lclavicle 6.58474e-015 4.57205e-015
lhumerus -20.7237 48.2489 9.34743
lradius 21.8522
lwrist 8.34683
lhand -25.3493 -7.57857
lfingers 7.12502
lthumb 1.17416 22.3979
rfemur -11.8836 -0.440628 14.3595
rtibia 21.8043
rfoot -19.9172 -11.6448
rtoes 16.5503
lfemur -12.6338 -6.37994 -20.9623
ltibia 27.6648
lfoot -25.3721 16.0736
ltoes 11.2592
826
root 2.19753 16.8934 -0.0441685 -132.747 -85.6163 142.698
lowerback -13.4985 0.0107744 -3.4069
upperback -2.48619 0.383589 0.090541
thorax 4.91874 0.090169 2.08356
lowerneck -32.2756 0.633583 -1.742
upperneck 26.7583 2.0194 -0.869475
head 14.5941 0.491503 0.34713
rclavicle 3.59365e-015 6.16232e-015
rhumerus -24.8102 -59.4738 -2.04802
rradius 23.6103
rwrist -10.8966
rhand -2.0763 -30.7113
rfingers 7.12502
rthumb 23.6002 -59.283
lclavicle 3.59365e-015 6.16232e-015
lhumerus -20.7285 48.1201 9.39009
lradius 21.8348
lwrist 8.42268
lhand -25.2373 -7.76663
lfingers 7.12502
lthumb 1.28236 22.2093
rfemur -11.8731 -0.422427 14.4601
rtibia 21.7217
rfoot -19.8217 -11.6571
rtoes 16.751
lfemur -12.6744 -6.58306 -20.8448
ltibia 27.7219
lfoot -25.6721 16.1064
ltoes 11.0124
827
root 2.19433 16.9011 -0.0428109 -133.424 -85.6876 143.42
lowerback -13.5087 0.010669 -3.30229
upperback -2.53413 0.364584 0.120949
thorax 4.87552 0.0827958 2.05292
lowerneck -32.2207 0.698743 -1.70432
upperneck 26.7799 2.08037 -0.835408
head 14.5922 0.526476 0.367819
rclavicle 1.19022e-014 1.98785e-016
rhumerus -24.6782 -58.9693 -2.27244
rradius 23.6812
rwrist -11.207
rhand -1.35872 -30.6059
rfingers 7.12502
rthumb 24.2883 -59.0872
lclavicle 1.19022e-014 1.98785e-016
lhumerus -20.8332 48.2783 9.26967
lradius 21.7374
lwrist 7.83455
lhand -24.7793 -8.11888
lfingers 7.12502
lthumb 1.72474 21.8539
rfemur -11.9026 -0.374893 14.5524
rtibia 21.6425
rfoot -19.67 -11.764
rtoes 16.6463
lfemur -12.7948 -6.8342 -20.7292
ltibia 27.7692
lfoot -25.8547 16.3523
ltoes 10.3966
828
root 2.19295 16.9063 -0.0411153 -133.017 -85.7266 143.018
lowerback -13.4623 -0.000555651 -3.27866
upperback -2.56341 0.343271 0.123531
thorax 4.8206 0.0736555 2.0381
lowerneck -32.2169 0.706853 -1.73838
upperneck 26.8258 2.0886 -0.775156
head 14.6102 0.534756 0.400242
rclavicle 3.44146e-015 -9.74045e-015
rhumerus -24.918 -59.7967 -1.92398
rradius 23.5316
rwrist -10.3673
rhand -4.01327 -31.5971
rfingers 7.12502
rthumb 21.7412 -60.3961
lclavicle 3.44146e-015 -9.74045e-015
lhumerus -20.7398 47.6785 9.49274
lradius 21.8279
lwrist 8.51992
lhand -24.7757 -8.16386
lfingers 7.12502
lthumb 1.72822 21.8089
rfemur -11.8757 -0.179337 14.541
rtibia 21.5776
rfoot -19.7474 -12.0201
rtoes 16.4973
lfemur -12.8596 -6.90636 -20.7208
ltibia 27.8035
lfoot -25.8131 16.4668
ltoes 10.2331
